<svg width="184" height="17" viewBox="0 0 184 17" fill="none" xmlns="http://www.w3.org/2000/svg">
<path d="M1.04297 3.56055V12.0156H2.55469V9.24414H4.38867C6.09961 9.24414 7.29492 8.0957 7.29492 6.41992C7.29492 4.71484 6.14062 3.56055 4.45312 3.56055H1.04297ZM2.55469 4.82617H4.05469C5.14453 4.82617 5.75977 5.38281 5.75977 6.41992C5.75977 7.42773 5.12695 7.99023 4.04883 7.99023H2.55469V4.82617ZM13.1152 3.34961C10.6602 3.34961 9.10742 5.05469 9.10742 7.78516C9.10742 10.5156 10.6309 12.2266 13.1152 12.2266C15.582 12.2266 17.1055 10.5098 17.1055 7.78516C17.1055 5.05469 15.5703 3.34961 13.1152 3.34961ZM13.1152 4.69141C14.6152 4.69141 15.5586 5.89258 15.5586 7.78516C15.5586 9.67188 14.6211 10.8848 13.1152 10.8848C11.5859 10.8848 10.6543 9.67188 10.6543 7.78516C10.6543 5.89258 11.6094 4.69141 13.1152 4.69141ZM23.8984 6.02734H23.9863L25.709 12.0156H27.127L29.3945 3.56055H27.8301L26.3828 9.85352H26.3008L24.6133 3.56055H23.2715L21.6074 9.85352H21.5195L20.0723 3.56055H18.4961L20.7637 12.0156H22.1875L23.8984 6.02734ZM36.9258 10.709H32.9648V8.3418H36.709V7.11133H32.9648V4.86719H36.9258V3.56055H31.4531V12.0156H36.9258V10.709ZM40.8125 4.81445H42.5234C43.4844 4.81445 44.0703 5.35352 44.0703 6.23242C44.0703 7.12891 43.5195 7.64453 42.5586 7.64453H40.8125V4.81445ZM40.8125 8.8457H42.4883L44.1465 12.0156H45.875L44.0293 8.61133C45.0371 8.24805 45.623 7.31641 45.623 6.20312C45.623 4.58008 44.5098 3.56055 42.7344 3.56055H39.3008V12.0156H40.8125V8.8457ZM53.4297 10.709H49.4688V8.3418H53.2129V7.11133H49.4688V4.86719H53.4297V3.56055H47.957V12.0156H53.4297V10.709ZM55.8047 3.56055V12.0156H58.9746C61.5059 12.0156 62.9531 10.4629 62.9531 7.75C62.9531 5.0957 61.4883 3.56055 58.9746 3.56055H55.8047ZM57.3164 4.86719H58.7754C60.4336 4.86719 61.4121 5.92773 61.4121 7.77344C61.4121 9.66016 60.457 10.709 58.7754 10.709H57.3164V4.86719ZM72.4902 12.0156C74.2949 12.0156 75.3965 11.0957 75.3965 9.61328C75.3965 8.51172 74.6113 7.69141 73.4746 7.58594V7.48047C74.3242 7.3457 74.9805 6.56055 74.9805 5.66992C74.9805 4.36914 74.0137 3.56055 72.4082 3.56055H68.875V12.0156H72.4902ZM70.3867 4.76172H72.0391C72.9531 4.76172 73.4863 5.19531 73.4863 5.93945C73.4863 6.70117 72.918 7.11719 71.8457 7.11719H70.3867V4.76172ZM70.3867 10.8145V8.20703H72.0859C73.2402 8.20703 73.8496 8.65234 73.8496 9.49609C73.8496 10.3574 73.2578 10.8145 72.1445 10.8145H70.3867ZM81.1582 12.0156V8.71094L84.123 3.56055H82.4648L80.4551 7.17578H80.3555L78.3398 3.56055H76.6816L79.6465 8.71094V12.0156H81.1582Z" fill="#BFBFBF"/>
<path d="M172.258 3.71511H174.151V12.0156H172.258V3.71511ZM173.212 2.34723C172.869 2.34723 172.581 2.23842 172.348 2.02081C172.116 1.79283 172 1.51303 172 1.18143C172 0.849822 172.116 0.57521 172.348 0.357593C172.581 0.129614 172.869 0.015625 173.212 0.015625C173.555 0.015625 173.843 0.124433 174.076 0.342049C174.308 0.549304 174.424 0.813552 174.424 1.1348C174.424 1.47676 174.308 1.76692 174.076 2.00526C173.853 2.23324 173.566 2.34723 173.212 2.34723Z" fill="#BFBFBF"/>
<path d="M180.621 3.62184C181.642 3.62184 182.46 3.92754 183.076 4.53894C183.692 5.15034 184 6.05708 184 7.25915V12.0156H182.106V7.50785C182.106 6.78246 181.94 6.23842 181.606 5.87573C181.273 5.50267 180.798 5.31614 180.182 5.31614C179.485 5.31614 178.935 5.53376 178.531 5.96899C178.127 6.39386 177.925 7.01044 177.925 7.81873V12.0156H176.031V3.71511H177.834V4.78765C178.147 4.40423 178.541 4.11407 179.016 3.91718C179.49 3.72029 180.026 3.62184 180.621 3.62184Z" fill="#BFBFBF"/>
<path d="M136.627 3.98225C137.689 3.98225 138.53 4.27108 139.15 4.84874C139.77 5.4166 140.08 6.2733 140.08 7.41883V11.9128H138.109V7.65381C138.109 6.96845 137.946 6.45443 137.62 6.11175C137.295 5.75928 136.827 5.58305 136.217 5.58305C135.555 5.58305 135.024 5.78866 134.625 6.19987C134.225 6.6013 134.026 7.17896 134.026 7.93285V11.9128H132.055V7.65381C132.055 6.96845 131.892 6.45443 131.566 6.11175C131.24 5.75928 130.772 5.58305 130.163 5.58305C129.49 5.58305 128.954 5.78376 128.554 6.18518C128.165 6.58661 127.971 7.16916 127.971 7.93285V11.9128H126V4.07036H127.876V5.06903C128.192 4.71656 128.586 4.44731 129.059 4.26129C129.532 4.07526 130.057 3.98225 130.636 3.98225C131.266 3.98225 131.823 4.09484 132.307 4.32003C132.801 4.53543 133.19 4.85853 133.474 5.28932C133.821 4.87811 134.267 4.55991 134.814 4.33472C135.36 4.09974 135.965 3.98225 136.627 3.98225Z" fill="#0000C0"/>
<path d="M149.96 8.03565C149.96 8.16293 149.95 8.34406 149.929 8.57904H143.322C143.438 9.1567 143.737 9.61687 144.221 9.95955C144.715 10.2924 145.325 10.4589 146.05 10.4589C146.975 10.4589 147.737 10.1749 148.336 9.60708L149.392 10.7379C149.014 11.1589 148.536 11.4771 147.958 11.6925C147.38 11.9079 146.728 12.0156 146.003 12.0156C145.078 12.0156 144.263 11.8443 143.559 11.5016C142.854 11.1589 142.308 10.6841 141.919 10.077C141.54 9.46022 141.351 8.76507 141.351 7.99159C141.351 7.22791 141.535 6.54255 141.903 5.93552C142.281 5.3187 142.802 4.83895 143.464 4.49627C144.126 4.15359 144.873 3.98225 145.703 3.98225C146.523 3.98225 147.253 4.15359 147.895 4.49627C148.546 4.82915 149.051 5.30401 149.408 5.92083C149.776 6.52786 149.96 7.2328 149.96 8.03565ZM145.703 5.45087C145.072 5.45087 144.536 5.62711 144.095 5.97958C143.664 6.32226 143.401 6.78243 143.306 7.36009H148.084C148 6.79222 147.742 6.33205 147.311 5.97958C146.88 5.62711 146.344 5.45087 145.703 5.45087Z" fill="#0000C0"/>
<path d="M153.824 12.0156C153.141 12.0156 152.473 11.9324 151.822 11.766C151.17 11.5995 150.65 11.389 150.261 11.1345L151.018 9.73926C151.396 9.97424 151.848 10.1652 152.374 10.312C152.91 10.4491 153.435 10.5176 153.95 10.5176C155.128 10.5176 155.716 10.2288 155.716 9.65114C155.716 9.377 155.564 9.18608 155.259 9.07838C154.965 8.97068 154.486 8.86787 153.824 8.76996C153.13 8.67206 152.563 8.55946 152.121 8.43218C151.69 8.3049 151.312 8.08461 150.986 7.7713C150.671 7.4482 150.513 7.00272 150.513 6.43485C150.513 5.69075 150.844 5.0984 151.506 4.65781C152.179 4.20744 153.083 3.98225 154.218 3.98225C154.796 3.98225 155.375 4.04589 155.953 4.17317C156.531 4.29066 157.004 4.45221 157.372 4.65781L156.615 6.05301C155.9 5.66138 155.096 5.46556 154.203 5.46556C153.624 5.46556 153.183 5.54878 152.878 5.71522C152.584 5.87188 152.437 6.08238 152.437 6.34673C152.437 6.64046 152.594 6.85096 152.91 6.97824C153.236 7.09573 153.735 7.20833 154.408 7.31603C155.08 7.41393 155.632 7.52653 156.063 7.65381C156.494 7.78109 156.862 7.99649 157.167 8.3C157.482 8.60352 157.64 9.03432 157.64 9.59239C157.64 10.3267 157.298 10.9142 156.615 11.3547C155.932 11.7953 155.001 12.0156 153.824 12.0156Z" fill="#0000C0"/>
<path d="M163.484 3.98225C164.546 3.98225 165.397 4.27108 166.038 4.84874C166.679 5.4264 167 6.28309 167 7.41883V11.9128H165.029V7.65381C165.029 6.96845 164.856 6.45443 164.509 6.11175C164.162 5.75928 163.668 5.58305 163.027 5.58305C162.301 5.58305 161.729 5.78866 161.308 6.19987C160.888 6.6013 160.677 7.18385 160.677 7.94753V11.9128H158.706V1.01562H160.677V4.98091C161.003 4.65781 161.403 4.41304 161.876 4.2466C162.359 4.07036 162.895 3.98225 163.484 3.98225Z" fill="#0000C0"/>
<path d="M97.7709 0.000732426L107.181 0.00394016C107.205 0.00394853 107.228 0.0170607 107.24 0.0383403L111.948 8.21195C111.96 8.23323 111.96 8.25945 111.948 8.28073L109.707 12.174L107.428 8.2176C107.427 8.21376 107.426 8.21001 107.424 8.20637L107.422 8.2033L104.983 3.9691C104.972 3.94875 104.95 3.93587 104.927 3.93477L104.924 3.9347L100.05 3.93268C100.027 3.93267 100.005 3.94468 99.9922 3.96437L99.9906 3.9671L97.5553 8.19918C97.5436 8.21945 97.5431 8.24419 97.5537 8.26488L97.5553 8.26796L99.9941 12.5022C100.006 12.5225 100.027 12.5354 100.05 12.5365L100.054 12.5366L104.4 12.5383L106.673 16.4853L97.7764 16.4823C97.7519 16.4823 97.7293 16.4692 97.717 16.4479L93.0092 8.27426C92.9969 8.25298 92.9969 8.22676 93.0092 8.20548L97.7114 0.0351529C97.7237 0.0138473 97.7463 0.00072406 97.7709 0.000732426Z" fill="#BFBFBF"/>
<path d="M116.665 16.4846L107.255 16.4814C107.23 16.4814 107.208 16.4683 107.195 16.447L102.487 8.2734C102.475 8.25212 102.475 8.2259 102.487 8.20462L104.728 4.31132L107.007 8.26775C107.008 8.27159 107.01 8.27535 107.012 8.27898L107.013 8.28205L109.452 12.5163C109.464 12.5366 109.485 12.5495 109.508 12.5506L109.512 12.5507L114.386 12.5527C114.409 12.5527 114.431 12.5407 114.443 12.521L114.445 12.5182L116.88 8.28617C116.892 8.2659 116.892 8.24116 116.882 8.22047L116.88 8.21739L114.441 3.9832C114.43 3.96284 114.408 3.94996 114.385 3.94887L114.382 3.9488L110.036 3.94701L107.762 5.34058e-05L116.659 0.00308228C116.684 0.0030899 116.706 0.016201 116.719 0.0374813L121.426 8.21109C121.439 8.23237 121.439 8.25859 121.426 8.27987L116.724 16.4502C116.712 16.4715 116.689 16.4846 116.665 16.4846Z" fill="#0000C0"/>
</svg>
